{
  "accessors": [
    {
      "bufferView": 2,
      "componentType": 5126,
      "count": 14219,
      "max": [
        14.388779640197754,
        15.24554443359375,
        18.688453674316406
      ],
      "min": [
        -15.395236968994141,
        -15.24554443359375,
        -18.611045837402344
      ],
      "type": "VEC3"
    },
    {
      "bufferView": 2,
      "byteOffset": 170628,
      "componentType": 5126,
      "count": 14219,
      "max": [
        1,
        1,
        1
      ],
      "min": [
        -1,
        -1,
        -1
      ],
      "type": "VEC3"
    },
    {
      "bufferView": 1,
      "componentType": 5126,
      "count": 14219,
      "max": [
        0.99515098333358765,
        0.99484097957611084
      ],
      "min": [
        0.0044040000066161156,
        -0.24560189247131348
      ],
      "type": "VEC2"
    },
    {
      "bufferView": 0,
      "componentType": 5125,
      "count": 38691,
      "max": [
        14218
      ],
      "min": [
        0
      ],
      "type": "SCALAR"
    },
    {
      "bufferView": 2,
      "byteOffset": 341256,
      "componentType": 5126,
      "count": 37,
      "max": [
        10.77919864654541,
        5.3554959297180176,
        5.3554949760437012
      ],
      "min": [
        9.7047338485717773,
        -5.3554940223693848,
        -5.3554987907409668
      ],
      "type": "VEC3"
    },
    {
      "bufferView": 2,
      "byteOffset": 341700,
      "componentType": 5126,
      "count": 37,
      "max": [
        1,
        0.31869515776634216,
        0.31869515776634216
      ],
      "min": [
        0.94692903757095337,
        -0.31869515776634216,
        -0.31869515776634216
      ],
      "type": "VEC3"
    },
    {
      "bufferView": 1,
      "byteOffset": 113752,
      "componentType": 5126,
      "count": 37,
      "max": [
        0.98101997375488281,
        0.98101997375488281
      ],
      "min": [
        0.018980000168085098,
        0.018980026245117188
      ],
      "type": "VEC2"
    },
    {
      "bufferView": 0,
      "byteOffset": 154764,
      "componentType": 5125,
      "count": 180,
      "max": [
        36
      ],
      "min": [
        0
      ],
      "type": "SCALAR"
    }
  ],
  "asset": {
    "extras": {
      "author": "DggXx (https://sketchfab.com/DGGXx)",
      "license": "CC-BY-4.0 (http://creativecommons.org/licenses/by/4.0/)",
      "source": "https://sketchfab.com/3d-models/fact-core-ce44253e701e432f8580e3d15e8ad914",
      "title": "Fact Core"
    },
    "generator": "Sketchfab-10.11.2",
    "version": "2.0"
  },
  "bufferViews": [
    {
      "buffer": 0,
      "byteLength": 155484,
      "byteOffset": 0,
      "name": "floatBufferViews",
      "target": 34963
    },
    {
      "buffer": 0,
      "byteLength": 114048,
      "byteOffset": 155484,
      "byteStride": 8,
      "name": "floatBufferViews",
      "target": 34962
    },
    {
      "buffer": 0,
      "byteLength": 342144,
      "byteOffset": 269532,
      "byteStride": 12,
      "name": "floatBufferViews",
      "target": 34962
    }
  ],
  "buffers": [
    {
      "byteLength": 611676,
      "uri": "scene.bin"
    }
  ],
  "images": [
    {
      "uri": "textures/Texture_0_baseColor.png"
    },
    {
      "uri": "textures/Texture_2_baseColor.png"
    }
  ],
  "materials": [
    {
      "doubleSided": true,
      "name": "Texture_0",
      "pbrMetallicRoughness": {
        "baseColorFactor": [
          1,
          1,
          1,
          1
        ],
        "baseColorTexture": {
          "index": 0,
          "texCoord": 0
        },
        "metallicFactor": 0,
        "roughnessFactor": 0.31787905319543502
      }
    },
    {
      "doubleSided": true,
      "emissiveFactor": [
        1,
        1,
        1
      ],
      "emissiveTexture": {
        "index": 1,
        "texCoord": 0
      },
      "name": "Texture_2",
      "pbrMetallicRoughness": {
        "baseColorFactor": [
          1,
          1,
          1,
          1
        ],
        "baseColorTexture": {
          "index": 1,
          "texCoord": 0
        },
        "metallicFactor": 0,
        "roughnessFactor": 0
      }
    }
  ],
  "meshes": [
    {
      "primitives": [
        {
          "attributes": {
            "NORMAL": 1,
            "POSITION": 0,
            "TEXCOORD_0": 2
          },
          "indices": 3,
          "material": 0,
          "mode": 4
        }
      ]
    },
    {
      "primitives": [
        {
          "attributes": {
            "NORMAL": 5,
            "POSITION": 4,
            "TEXCOORD_0": 6
          },
          "indices": 7,
          "material": 1,
          "mode": 4
        }
      ]
    }
  ],
  "nodes": [
    {
      "children": [
        1
      ],
      "name": "RootNode (gltf orientation matrix)",
      "rotation": [
        -0.70710678118654746,
        -0,
        -0,
        0.70710678118654757
      ]
    },
    {
      "children": [
        2
      ],
      "name": "RootNode (model correction matrix)"
    },
    {
      "children": [
        3,
        4
      ],
      "name": "personality_sphere_model.obj.cleaner.materialmerger.gles"
    },
    {
      "mesh": 0,
      "name": ""
    },
    {
      "mesh": 1,
      "name": ""
    }
  ],
  "samplers": [
    {
      "magFilter": 9729,
      "minFilter": 9987,
      "wrapS": 10497,
      "wrapT": 10497
    }
  ],
  "scene": 0,
  "scenes": [
    {
      "name": "OSG_Scene",
      "nodes": [
        0
      ]
    }
  ],
  "textures": [
    {
      "sampler": 0,
      "source": 0
    },
    {
      "sampler": 0,
      "source": 1
    }
  ]
}

